<svg xmlns="http://www.w3.org/2000/svg" viewBox="0 0 37.09 37.09"><defs><style>.cls-1{fill:#fff;}</style></defs><title>icon_mail</title><g id="Livello_2" data-name="Livello 2"><g id="Livello_1-2" data-name="Livello 1"><path d="M22.59,0H14.51A14.51,14.51,0,0,0,0,14.51v8.08A14.51,14.51,0,0,0,14.51,37.09h8.08A14.51,14.51,0,0,0,37.09,22.59V14.51A14.51,14.51,0,0,0,22.59,0Z"/><path class="cls-1" d="M29.19,27H7.91a1.75,1.75,0,0,1-1.75-1.75V11.88a1.75,1.75,0,0,1,1.75-1.75H29.19a1.75,1.75,0,0,1,1.75,1.75V25.21A1.75,1.75,0,0,1,29.19,27ZM7.91,11.63a.25.25,0,0,0-.25.25V25.21a.25.25,0,0,0,.25.25H29.19a.25.25,0,0,0,.25-.25V11.88a.25.25,0,0,0-.25-.25H7.91Z"/><path class="cls-1" d="M18.69,21.09a.74.74,0,0,1-.47-.17l-5.71-4.6L6.8,11.73a.75.75,0,1,1,.94-1.17L13.21,15l5.48,4.4L24,15l5.27-4.35a.75.75,0,1,1,1,1.16l-5.5,4.54-5.5,4.54a.75.75,0,0,1-.48.17Z"/><path class="cls-1" d="M7.5,26.34A.75.75,0,0,1,7,25l4-3.81,4-3.81a.75.75,0,1,1,1,1.09l-4,3.81L8,26.14a.74.74,0,0,1-.24.16A.75.75,0,0,1,7.5,26.34Z"/><path class="cls-1" d="M29.43,26.15a.75.75,0,0,1-.53-.22l-3.74-3.76L21.41,18.4a.75.75,0,1,1,1.06-1.06l3.74,3.76L30,24.87a.75.75,0,0,1-.53,1.28Z"/></g></g></svg>